<?xml version="1.0" encoding="iso-8859-1"?>
<!-- Generator: Adobe Illustrator 19.0.0, SVG Export Plug-In . SVG Version: 6.00 Build 0)  -->
<svg version="1.1" id="Capa_1" xmlns="http://www.w3.org/2000/svg" xmlns:xlink="http://www.w3.org/1999/xlink" x="0px" y="0px"
	 viewBox="0 0 512 512" style="enable-background:new 0 0 512 512;" xml:space="preserve">
<g>
	<g>
		<path d="M241,482h-16.518c-6.969-34.191-37.266-60-73.482-60h-30c-36.216,0-66.513,25.809-73.482,60H31c-8.291,0-15,6.709-15,15
			c0,8.291,6.709,15,15,15h210c8.291,0,15-6.709,15-15C256,488.709,249.291,482,241,482z"/>
	</g>
</g>
<g>
	<g>
		<path d="M487.504,31.479c-5.2-2.505-11.353-1.802-15.879,1.802c-39.873,31.904-91.377,31.904-131.25,0
			C296.895-1.478,242.747-6.434,196,17.763v246.145c39.023-27.68,87.567-26.642,125.625,3.811
			c25.635,20.493,55.005,30.747,84.375,30.747s58.74-10.254,84.375-30.747c3.56-2.856,5.625-7.163,5.625-11.719V45
			C496,39.229,492.689,33.984,487.504,31.479z"/>
	</g>
</g>
<g>
	<g>
		<path d="M136,0c-16.569,0-30,13.431-30,30v362h60V30C166,13.431,152.569,0,136,0z"/>
	</g>
</g>
<g>
</g>
<g>
</g>
<g>
</g>
<g>
</g>
<g>
</g>
<g>
</g>
<g>
</g>
<g>
</g>
<g>
</g>
<g>
</g>
<g>
</g>
<g>
</g>
<g>
</g>
<g>
</g>
<g>
</g>
</svg>
