<?xml version="1.0" encoding="iso-8859-1"?>
<!-- Generator: Adobe Illustrator 19.0.0, SVG Export Plug-In . SVG Version: 6.00 Build 0)  -->
<svg version="1.1" id="Layer_1" xmlns="http://www.w3.org/2000/svg" xmlns:xlink="http://www.w3.org/1999/xlink" x="0px" y="0px"
	 viewBox="0 0 511.998 511.998" style="enable-background:new 0 0 511.998 511.998;" xml:space="preserve">
<g>
	<g>
		<path d="M459.915,213.954l-8.651,0.108v130.65h8.586c12.089,0,21.923-9.835,21.923-21.924v-86.91
			C481.773,223.811,471.974,213.99,459.915,213.954z"/>
	</g>
</g>
<g>
	<g>
		<path d="M53.305,213.953c-12.734,0.036-23.081,10.406-23.081,23.148v84.464c0,12.764,10.383,23.147,23.147,23.147h8.586v-130.65
			L53.305,213.953z"/>
	</g>
</g>
<g>
	<g>
		<path d="M431.326,367.48V232.45h0c0-9.944-0.98-19.662-2.833-29.071c-0.624-3.167-1.346-6.3-2.165-9.394v-24.266
			C426.329,76.135,350.193,0,256.61,0S86.892,76.135,86.892,169.718v16.274c-0.781,2.398-1.503,4.82-2.165,7.269
			c-3.379,12.5-5.194,25.635-5.194,39.188V367.48v25.138c0,6.287,5.097,11.385,11.385,11.385h35.181
			c11.991,61.461,66.236,107.995,131.154,107.995c51.283,0,95.904-29.043,118.299-71.541c38.282-2.483,68.715-34.184,69.166-72.977
			H431.326z M356.728,378.368c0,9.759-1.42,19.192-4.051,28.109h-83.454c-9.431,0-17.077,7.646-17.077,17.077
			s7.646,17.077,17.077,17.077h65.546c-18.249,22.674-46.216,37.213-77.519,37.213c-54.851,0-99.476-44.624-99.476-99.476V269.676
			c12.703-7.998,35.672-24.111,51.406-44.698c23.32,18.835,71.298,48.077,147.546,51.884V378.368z M281.046,82.169h-51.232
			c-37.973,0-72.696,14.164-99.18,37.477c19.96-50.038,68.904-85.492,125.976-85.492c58.32,0,108.156,37.019,127.246,88.793
			C356.956,97.676,320.78,82.169,281.046,82.169z"/>
	</g>
</g>
<g>
	<g>
		<path d="M221.845,301.862h-27.323c-9.431,0-17.077,7.646-17.077,17.077s7.646,17.077,17.077,17.077h27.323
			c9.431,0,17.077-7.646,17.077-17.077S231.278,301.862,221.845,301.862z"/>
	</g>
</g>
<g>
	<g>
		<path d="M317.474,301.862h-27.323c-9.431,0-17.077,7.646-17.077,17.077s7.646,17.077,17.077,17.077h27.323
			c9.431,0,17.077-7.646,17.077-17.077S326.905,301.862,317.474,301.862z"/>
	</g>
</g>
<g>
</g>
<g>
</g>
<g>
</g>
<g>
</g>
<g>
</g>
<g>
</g>
<g>
</g>
<g>
</g>
<g>
</g>
<g>
</g>
<g>
</g>
<g>
</g>
<g>
</g>
<g>
</g>
<g>
</g>
</svg>
