<?xml version="1.0" encoding="iso-8859-1"?>
<!-- Generator: Adobe Illustrator 19.0.0, SVG Export Plug-In . SVG Version: 6.00 Build 0)  -->
<svg version="1.1" id="Capa_1" xmlns="http://www.w3.org/2000/svg" xmlns:xlink="http://www.w3.org/1999/xlink" x="0px" y="0px"
	 viewBox="0 0 512 512" style="enable-background:new 0 0 512 512;" xml:space="preserve">
<g>
	<g>
		<path d="M30,148.554c-16.569,0-30,13.431-30,30v150c0,16.567,13.431,30,30,30c16.569,0,30-13.433,30-30v-150
			C60,161.985,46.569,148.554,30,148.554z"/>
	</g>
</g>
<g>
	<g>
		<path d="M390,43.554c-16.569,0-30,13.43-30,30v360c0,16.567,13.431,30,30,30c16.569,0,30-13.433,30-30v-360
			C420,56.985,406.569,43.554,390,43.554z"/>
	</g>
</g>
<g>
	<g>
		<path d="M255.478,414.686l-4.477,13.462c-2.593,7.749-10.767,11.968-18.56,9.624l-87.949-26.382
			c-3.911-1.172-7.119-3.823-8.994-7.456c-1.89-3.633-2.227-7.778-0.938-11.66l4.206-12.601l-28.746-8.624l-3.922,11.733
			c-3.867,11.66-2.886,24.082,2.769,34.98c5.655,10.898,15.249,18.838,27.012,22.368l87.949,26.382
			c4.365,1.304,8.774,1.934,13.096,1.934c18.882,0,36.24-11.924,42.539-30.806l4.772-14.328L255.478,414.686z"/>
	</g>
</g>
<g>
	<g>
		<path d="M487.127,201.845L450,184.281v138.545l37.127-17.563C502.464,297.587,512,282.162,512,265.009v-22.91
			C512,224.945,502.464,209.521,487.127,201.845z"/>
	</g>
</g>
<g>
	<g>
		<polygon points="90,173.392 90,333.715 330,405.716 330,101.391 		"/>
	</g>
</g>
<g>
</g>
<g>
</g>
<g>
</g>
<g>
</g>
<g>
</g>
<g>
</g>
<g>
</g>
<g>
</g>
<g>
</g>
<g>
</g>
<g>
</g>
<g>
</g>
<g>
</g>
<g>
</g>
<g>
</g>
</svg>
