<?xml version="1.0" encoding="iso-8859-1"?>
<!-- Generator: Adobe Illustrator 18.1.1, SVG Export Plug-In . SVG Version: 6.00 Build 0)  -->
<svg version="1.1" id="Capa_1" xmlns="http://www.w3.org/2000/svg" xmlns:xlink="http://www.w3.org/1999/xlink" x="0px" y="0px"
	 viewBox="0 0 398.089 398.089" style="enable-background:new 0 0 398.089 398.089;" xml:space="preserve">
<g>
	<path style="fill:#010002;" d="M364.4,228.649c-4.487,0-8.129,3.633-8.129,8.129v145.054H41.826V236.777
		c0-4.495-3.642-8.129-8.129-8.129s-8.129,3.633-8.129,8.129V389.96c0,4.495,3.642,8.129,8.129,8.129H364.4
		c4.487,0,8.129-3.633,8.129-8.129V236.777C372.529,232.29,368.887,228.649,364.4,228.649z"/>
	<path style="fill:#010002;" d="M178.914,228.649H66.545c-4.487,0-8.129,3.633-8.129,8.129c0,4.495,3.642,8.129,8.129,8.129h104.241
		v39.57c0,4.495,3.642,8.129,8.129,8.129h51.933c4.487,0,8.129-3.633,8.129-8.129v-39.57h92.576c4.487,0,8.129-3.633,8.129-8.129
		c0-4.495-3.642-8.129-8.129-8.129H230.847c-4.487,0-8.129,3.633-8.129,8.129v39.57h-35.676v-39.57
		C187.043,232.29,183.409,228.649,178.914,228.649z"/>
	<path style="fill:#010002;" d="M388.249,85.561H9.84c-4.487,0-8.129,3.633-8.129,8.129v112.369c0,4.495,3.642,8.129,8.129,8.129
		h378.41c4.487,0,8.129-3.633,8.129-8.129V93.69C396.378,89.195,392.736,85.561,388.249,85.561z M380.121,197.931H17.968v-96.112
		h362.152C380.121,101.819,380.121,197.931,380.121,197.931z"/>
	<path style="fill:#010002;" d="M283.683,67.061c4.487,0,8.129-3.633,8.129-8.129V8.129c0-4.495-3.642-8.129-8.129-8.129H114.414
		c-4.487,0-8.129,3.633-8.129,8.129v50.804c0,4.495,3.642,8.129,8.129,8.129s8.129-3.633,8.129-8.129V16.257h153.012v42.675
		C275.555,63.427,279.196,67.061,283.683,67.061z"/>
</g>
<g>
</g>
<g>
</g>
<g>
</g>
<g>
</g>
<g>
</g>
<g>
</g>
<g>
</g>
<g>
</g>
<g>
</g>
<g>
</g>
<g>
</g>
<g>
</g>
<g>
</g>
<g>
</g>
<g>
</g>
</svg>
