<?xml version="1.0" encoding="iso-8859-1"?>
<!-- Generator: Adobe Illustrator 19.0.0, SVG Export Plug-In . SVG Version: 6.00 Build 0)  -->
<svg version="1.1" id="Capa_1" xmlns="http://www.w3.org/2000/svg" xmlns:xlink="http://www.w3.org/1999/xlink" x="0px" y="0px"
	 viewBox="0 0 512 512" style="enable-background:new 0 0 512 512;" xml:space="preserve">
<g>
	<g>
		<path d="M400,0H112C94.368,0,80,14.368,80,32v448c0,17.664,14.368,32,32,32h288c17.664,0,32-14.336,32-32V32
			C432,14.368,417.664,0,400,0z M400,416h-0.32v0.32h-288v-352H112V64h288V416z"/>
	</g>
</g>
<g>
	<g>
		<path d="M255.68,224c-8.832,0-16-7.168-16-16c0-8.832,7.168-16,16-16h32c8.832,0,16-7.136,16-16c0-8.8-7.168-16-16-16h-16v-16
			c0-8.832-7.168-16-16-16c-8.832,0-16,7.168-16,16v18.944c-18.592,6.624-32,24.224-32,45.056c0,26.464,21.536,48,48,48
			c8.832,0,16,7.2,16,16s-7.168,16-16,16h-32c-8.832,0-16,7.168-16,16c0,8.832,7.168,16,16,16h16v16c0,8.832,7.168,16,16,16
			c8.832,0,16-7.168,16-16v-18.944c18.592-6.624,32-24.224,32-45.056C303.68,245.536,282.144,224,255.68,224z"/>
	</g>
</g>
<g>
</g>
<g>
</g>
<g>
</g>
<g>
</g>
<g>
</g>
<g>
</g>
<g>
</g>
<g>
</g>
<g>
</g>
<g>
</g>
<g>
</g>
<g>
</g>
<g>
</g>
<g>
</g>
<g>
</g>
</svg>
